<svg width="300" height="300" viewBox="0 0 300 300" fill="none" xmlns="http://www.w3.org/2000/svg">
<path d="M247 0C276.271 1.67508e-06 300 23.7289 300 53V247C300 276.271 276.271 300 247 300H53C23.7289 300 0 276.271 0 247V53C1.67529e-06 23.7289 23.7289 0 53 0H247ZM62.4336 9.43359C33.1628 9.43379 9.43379 33.1628 9.43359 62.4336V237.566C9.43382 266.837 33.1628 290.566 62.4336 290.566H235.68C264.95 290.566 288.679 266.837 288.68 237.566V62.4336C288.68 33.1628 264.95 9.43386 235.68 9.43359H62.4336ZM229.585 28.3018C253.885 28.3018 273.585 48.0013 273.585 72.3018V225.812C273.585 250.112 253.885 269.811 229.585 269.812H72.3018C48.0014 269.811 28.3019 250.112 28.3018 225.812V72.3018C28.3018 48.0014 48.0014 28.3019 72.3018 28.3018H229.585ZM195.283 210.377L198.113 211.32L197.17 217.925L191.509 226.415H187.735L186.792 220.755H183.019L122.642 256.604H177.358L197.17 232.075C204.312 219.047 206.542 211.566 209.434 198.113L195.283 210.377ZM183.727 73.585C181.847 73.5856 194.969 81.0875 195.047 81.1318C202.474 86.0781 207.684 89.8019 212.028 98.1133C218.011 109.56 216.745 124.528 213.915 131.132C211.085 137.736 210.361 140.789 205.424 146.227C201.603 136.625 199.17 131.36 193.16 122.642C178.82 106.815 169.883 99.6167 150.707 90.5664C132.982 80.9594 101.651 83.9618 90.3301 85.8486C79.0093 87.7356 46.9348 104.716 45.9902 111.32C45.0469 117.924 45.0469 192.452 45.9902 211.32C46.9336 230.188 68.631 248.112 76.1787 249.057C83.7259 250 106.379 241.558 127.122 233.019C147.829 224.494 174.201 202.905 174.292 202.83C174.292 202.83 192.216 189.623 205.424 174.528C218.591 159.48 226.133 140.681 226.179 140.566C230.273 126.53 234.121 117.247 229.009 103.773C224.294 91.3494 219.067 86.8514 205.424 79.2451C205.35 79.2135 199.191 76.5684 195.047 75.4717C190.714 74.325 185.614 73.5851 183.727 73.585ZM143.396 130.188H151.887V132.075H156.604V128.302H158.49V126.415H160.377C160.063 125.786 159.623 124.529 160.377 124.528H181.132V128.302H183.019V132.075H184.905V133.962H186.792V137.736H188.68V139.623H190.566V145.283H192.453V154.717H188.68V152.83H186.792V150.943H184.905V149.057H183.019V147.17H177.358V149.057H175.472V150.943H179.245V153.773H181.132V160.377H179.245V162.265H177.358V166.038H175.472V167.925H169.812V171.698H171.698V175.472H173.585V181.132H171.698V183.019H164.151V190.566H162.264V196.227H156.604V188.68H154.717V184.905H152.83V181.132H149.057V186.792H147.17V190.566H145.283V194.34H139.623V190.566H136.792V186.792H133.962V183.019H132.075V179.245L130.188 178.302C130.188 179.056 126.415 182.39 124.528 183.962L123.585 191.51L116.981 198.113H114.151V211.32C111.321 215.094 105.472 222.642 104.717 222.642H98.1133L97.1699 213.208L94.3398 212.265V207.547H97.1699L96.2266 203.773L87.7354 194.34C86.1628 194.969 82.8298 196.227 82.0752 196.227H78.3018L73.585 188.68V182.075L78.3018 177.358H81.1318V173.585H78.3018V167.925H84.9053V160.377H90.5664V158.49H92.4531V154.717H90.5664V152.83H88.6797V149.057H90.5664V145.283H94.3398V143.396H96.2266V141.51H98.1133V139.623H105.66V141.51H109.434V143.396H113.207V141.51H120.755V139.623H124.528V135.849H126.415V133.962H128.302V132.075H130.188V130.188H132.075V128.302H133.962V124.528H143.396V130.188ZM81.1318 123.585L74.5283 131.132V141.51L63.207 147.17L59.4336 151.887L57.5469 152.83L53.7734 150V143.396L56.6035 142.453V132.075L50.9434 131.132V124.528L56.6035 123.585L60.377 119.812H66.9814L73.585 116.981L81.1318 123.585Z" fill="#23479F"/>
</svg>
